<svg id="odin-recipes-logo" xmlns="http://www.w3.org/2000/svg" viewBox="0 0 120 120"><defs><style>.cls-1{fill:#ddb892;}.cls-2{fill:#fff;}</style></defs><rect class="cls-1" width="120" height="120" rx="3.9"/><path id="logo-r" class="cls-2" d="M103.47,97.68v4.52a47.71,47.71,0,0,1-4.77.72c-1.39.12-2.71.18-4,.18a31.33,31.33,0,0,1-4.74-.37,12.48,12.48,0,0,1-3.78-1.12,7.49,7.49,0,0,1-2.72-2.31A9.35,9.35,0,0,1,82,95.51l-2.33-12c-.6-3-1.65-5-3.15-6.13a11.08,11.08,0,0,0-6.77-1.72H67V86.32c0,3.51,0,7.05.18,10.59l7.4.77v4.52H46.49V97.68l7.3-.8Q54,91.29,54,85.64V59.82q0-5.64-.18-11.36l-7.3-.81V43.12H74.6q10.19,0,15.82,4A12.63,12.63,0,0,1,96.05,58a15.35,15.35,0,0,1-.67,4.46,13.67,13.67,0,0,1-2.26,4.41A15.58,15.58,0,0,1,89,70.66a21.17,21.17,0,0,1-6.31,2.66,15.68,15.68,0,0,1,7.07,4.17,15.42,15.42,0,0,1,3.79,7.8l2.52,11.57Zm-32.55-27a15.81,15.81,0,0,0,5.82-.95,10.5,10.5,0,0,0,3.88-2.52,9.4,9.4,0,0,0,2.17-3.79,15.54,15.54,0,0,0,.64-4.55c0-3.61-1-6.31-3-8.12s-5.16-2.7-9.55-2.7H67.11C67,51.8,67,55.55,67,59.3V70.66Z"/><path id="logo-o" class="cls-2" d="M47.72,77.92a12,12,0,0,1-7.57-2.37,18,18,0,0,1-5-6.32,32.23,32.23,0,0,1-2.85-8.83,58.44,58.44,0,0,1-.87-10.22,59.91,59.91,0,0,1,.87-10.27,32.08,32.08,0,0,1,2.85-9,18.22,18.22,0,0,1,5-6.31,12.11,12.11,0,0,1,7.57-2.37,12.08,12.08,0,0,1,7.58,2.37A17.53,17.53,0,0,1,60.35,31a34,34,0,0,1,2.89,8.91,1.32,1.32,0,0,0,.08.55H77.81a30.42,30.42,0,0,0-1.61-4.86A29.84,29.84,0,0,0,59,19a31.58,31.58,0,0,0-22.57,0A29.78,29.78,0,0,0,19.25,35.55a36.4,36.4,0,0,0-2.72,14.58,36.15,36.15,0,0,0,2.72,14.52A30.79,30.79,0,0,0,26.37,75a29.63,29.63,0,0,0,10,6.19,32.19,32.19,0,0,0,11.36,2.08A31.09,31.09,0,0,0,51.36,83V77.49A14,14,0,0,1,47.72,77.92Z"/></svg>