<svg id="odin-recipes-logo" xmlns="http://www.w3.org/2000/svg" viewBox="0 0 68.88 68.28"><defs><style>.cls-1{fill:#231f20;}</style></defs><path id="logo-r" class="cls-1" d="M68.88,64v3.58a37.67,37.67,0,0,1-3.78.57c-1.1.09-2.15.14-3.15.14A25.16,25.16,0,0,1,58.2,68a9.79,9.79,0,0,1-3-.89,5.92,5.92,0,0,1-2.15-1.83,7.49,7.49,0,0,1-1.21-3L50,52.78q-.72-3.51-2.5-4.86a8.77,8.77,0,0,0-5.36-1.36H40V55c0,2.78,0,5.58.14,8.39L46,64v3.58H23.73V64l5.79-.64q.14-4.43.14-8.9V34q0-4.47-.14-9l-5.79-.64V20.77H46q8.07,0,12.54,3.14A10,10,0,0,1,63,32.56a12.35,12.35,0,0,1-.53,3.53,11,11,0,0,1-1.79,3.5,12.55,12.55,0,0,1-3.28,3,17,17,0,0,1-5,2.11A12.46,12.46,0,0,1,58,48a12.23,12.23,0,0,1,3,6.18L63,63.35ZM43.09,42.63a12.54,12.54,0,0,0,4.61-.75,8.39,8.39,0,0,0,3.07-2,7.47,7.47,0,0,0,1.72-3A12.32,12.32,0,0,0,53,33.27c0-2.86-.78-5-2.36-6.43s-4.09-2.14-7.57-2.14h-3C40,27.65,40,30.62,40,33.59v9Z"/><path id="logo-o" class="cls-1" d="M24.71,48.34a9.52,9.52,0,0,1-6-1.88,14.27,14.27,0,0,1-4-5,25.36,25.36,0,0,1-2.26-7,47.1,47.1,0,0,1-.69-8.1,47.62,47.62,0,0,1,.69-8.13,25.39,25.39,0,0,1,2.26-7.1,14.36,14.36,0,0,1,4-5,9.58,9.58,0,0,1,6-1.88,9.55,9.55,0,0,1,6,1.88,13.83,13.83,0,0,1,4,5A26.77,26.77,0,0,1,37,18.19c0,.14,0,.29.07.43H48.55a24.48,24.48,0,0,0-1.28-3.85A23.63,23.63,0,0,0,33.65,1.65a25,25,0,0,0-17.88,0A23.63,23.63,0,0,0,2.15,14.77,28.85,28.85,0,0,0,0,26.32,28.55,28.55,0,0,0,2.15,37.83,24.29,24.29,0,0,0,7.79,46a23.38,23.38,0,0,0,7.94,4.91,25.67,25.67,0,0,0,9,1.65,24.81,24.81,0,0,0,2.86-.18V48A10.93,10.93,0,0,1,24.71,48.34Z"/></svg>